<?xml version="1.0" standalone="no"?>
<!DOCTYPE svg PUBLIC "-//W3C//DTD SVG 20010904//EN"
 "http://www.w3.org/TR/2001/REC-SVG-20010904/DTD/svg10.dtd">
<svg version="1.0" xmlns="http://www.w3.org/2000/svg"
 width="2048.000000pt" height="1837.000000pt" viewBox="0 0 2048.000000 1837.000000"
 preserveAspectRatio="xMidYMid meet">

<g transform="translate(0.000000,1837.000000) scale(0.100000,-0.100000)"
fill="#000000" stroke="none">
<path d="M14470 12432 c-70 -23 -124 -58 -176 -113 -61 -65 -80 -97 -111 -185
l-28 -79 0 -1660 0 -1660 22 -70 c38 -122 120 -227 211 -274 123 -63 288 -68
406 -13 82 39 157 108 201 186 69 124 65 39 65 1508 0 859 -4 1328 -10 1328
-6 0 -9 15 -9 33 l1 32 8 -30 c4 -16 7 94 7 245 l-2 275 -2 -232 -3 -233 -125
0 c-77 0 -125 -4 -125 -10 0 -5 -18 -10 -40 -10 -29 0 -40 -4 -40 -15 0 -12
-16 -15 -80 -15 -64 0 -80 -3 -80 -15 0 -12 -19 -15 -115 -15 l-115 0 -1 38
-2 37 -8 -45 c-4 -25 -8 -82 -7 -128 0 -45 -2 -85 -5 -88 -20 -21 -28 636 -8
746 25 140 122 281 231 334 75 38 130 48 221 42 46 -2 95 -5 108 -5 35 -1 42
-10 30 -34 l-12 -22 21 20 20 20 -22 23 c-11 13 -55 40 -96 60 -67 32 -84 36
-175 39 -77 2 -113 -1 -155 -15z"/>
<path d="M15573 12416 c-65 -21 -124 -60 -175 -114 -87 -93 -91 -107 -179
-602 -36 -204 -59 -363 -59 -408 0 -186 112 -325 295 -368 71 -17 79 -17 152
-1 142 31 254 135 295 272 23 79 140 741 145 820 4 68 2 105 -11 147 -31 108
-117 201 -223 242 -64 24 -186 30 -240 12z"/>
<path d="M3800 12213 c-166 -28 -341 -150 -442 -308 -52 -81 -77 -140 -186
-436 -148 -400 -294 -793 -359 -969 -36 -96 -87 -236 -115 -310 -27 -74 -65
-175 -83 -225 -408 -1098 -392 -1052 -401 -1154 -7 -74 11 -162 47 -232 27
-54 99 -130 158 -168 175 -113 425 -97 573 37 76 68 113 141 188 374 39 120
78 225 86 233 13 13 94 15 633 15 478 0 621 -3 633 -12 9 -7 44 -101 79 -208
67 -212 107 -302 163 -367 81 -93 203 -145 346 -145 301 -1 504 249 435 535
-10 39 -71 221 -137 402 -199 548 -329 909 -488 1350 -83 231 -158 438 -167
460 -8 22 -37 101 -63 175 -170 474 -192 530 -238 613 -67 121 -178 234 -277
282 -106 52 -272 77 -385 58z m180 -1405 c39 -123 112 -347 161 -499 102 -317
107 -338 88 -350 -8 -5 -162 -9 -342 -9 -289 0 -328 2 -334 16 -3 8 65 235
152 502 171 528 183 562 195 562 5 0 41 -100 80 -222z"/>
<path d="M14976 12195 c-9 -26 -7 -32 5 -12 6 10 9 21 6 23 -2 3 -7 -2 -11
-11z"/>
<path d="M7030 11300 c-202 -21 -336 -68 -496 -174 -28 -18 -50 -25 -72 -22
-17 2 -29 -1 -26 -6 3 -5 11 -7 18 -6 17 4 108 -44 124 -64 18 -25 74 -23 97
2 10 11 24 20 32 20 7 0 13 4 13 8 0 5 17 17 38 28 20 10 39 22 42 25 8 10
131 50 195 64 33 7 110 18 170 25 132 15 306 3 423 -31 41 -11 80 -18 87 -15
10 3 12 0 8 -11 -4 -11 -2 -14 5 -9 6 3 34 -5 63 -18 28 -14 56 -23 60 -20 5
3 9 0 9 -5 0 -6 6 -11 14 -11 18 0 27 -25 15 -37 -6 -6 -4 -15 7 -24 12 -9 15
-10 10 -1 -4 6 -3 12 3 12 5 0 13 -5 16 -11 4 -6 13 -8 20 -5 21 8 36 -14 24
-37 -7 -13 -8 -22 -1 -29 7 -7 10 -4 9 7 -1 10 3 20 9 22 7 2 10 -6 9 -22 -2
-14 1 -25 6 -25 5 0 9 5 9 10 0 6 5 10 11 10 6 0 9 -6 6 -14 -3 -8 0 -19 7
-25 7 -6 12 -23 10 -37 -1 -14 0 -23 3 -20 4 3 13 0 21 -7 11 -8 14 -8 9 0 -4
6 -3 14 3 18 18 11 11 24 -56 94 -46 50 -70 68 -82 64 -14 -5 -15 -3 -5 7 27
29 -177 157 -333 209 -159 53 -369 77 -534 61z m853 -253 c3 -7 -3 -13 -14
-13 -13 0 -15 3 -7 13 6 7 12 13 13 13 2 0 5 -6 8 -13z m141 -160 c2 -15 -1
-24 -6 -21 -5 3 -7 11 -5 17 2 7 0 21 -6 32 -7 15 -7 17 3 9 6 -6 13 -23 14
-37z"/>
<path d="M9570 11303 c-322 -31 -559 -141 -779 -362 -292 -293 -457 -754 -438
-1221 13 -301 68 -533 182 -760 140 -278 343 -473 604 -578 213 -86 500 -103
736 -42 80 20 222 82 275 120 63 45 61 54 58 -303 l-3 -322 -32 -66 c-94 -190
-333 -288 -608 -249 -114 16 -166 32 -402 119 -304 111 -398 122 -522 60 -76
-38 -164 -132 -205 -219 -28 -58 -31 -75 -31 -155 0 -77 4 -98 27 -148 58
-123 153 -204 350 -296 240 -113 568 -183 868 -185 721 -3 1232 323 1419 908
67 210 64 130 68 1741 4 1609 6 1551 -58 1679 -58 117 -170 208 -290 235 -63
15 -176 13 -239 -3 -79 -21 -138 -57 -204 -126 -32 -33 -61 -60 -65 -60 -4 0
-36 22 -70 50 -115 93 -291 159 -474 179 -53 6 -104 10 -114 9 -10 0 -34 -3
-53 -5z m353 -891 c127 -63 224 -204 272 -396 20 -80 25 -123 25 -230 0 -191
-31 -307 -117 -438 -50 -77 -96 -117 -180 -156 -53 -25 -68 -27 -178 -27 -115
0 -123 1 -185 32 -133 65 -226 198 -271 388 -18 77 -20 112 -17 245 4 143 7
162 36 248 39 113 69 166 135 238 92 101 174 135 318 131 85 -2 103 -6 162
-35z"/>
<path d="M12525 11299 c-331 -36 -600 -163 -825 -389 -121 -122 -205 -241
-286 -405 -119 -243 -166 -441 -167 -705 0 -174 12 -279 50 -424 111 -428 374
-752 753 -930 174 -81 316 -118 525 -137 459 -41 1049 153 1293 427 159 178
158 395 -3 560 -72 73 -146 107 -245 112 -100 5 -157 -15 -387 -134 -209 -109
-262 -129 -381 -145 -193 -26 -438 47 -549 163 -44 46 -93 128 -93 154 l0 23
763 3 c705 3 766 5 817 22 112 37 191 114 230 223 22 60 25 84 24 198 -1 286
-111 583 -310 841 -130 167 -310 317 -490 408 -214 108 -492 160 -719 135z
m300 -813 c75 -27 134 -70 188 -135 43 -53 88 -141 90 -179 l2 -27 -457 -3
-458 -2 0 23 c0 37 56 141 107 197 74 82 159 131 263 150 70 14 193 2 265 -24z"/>
<path d="M16615 11280 c-445 -44 -777 -291 -901 -670 -26 -79 -28 -96 -28
-260 -1 -167 1 -179 27 -255 42 -118 81 -180 177 -276 141 -143 255 -209 659
-379 302 -127 350 -153 374 -202 16 -32 17 -41 5 -65 -22 -46 -69 -63 -181
-63 -123 0 -189 21 -377 120 -195 103 -232 114 -365 115 -98 0 -116 -3 -166
-26 -102 -48 -189 -148 -230 -267 -29 -82 -22 -196 17 -277 129 -265 615 -487
1069 -488 285 -1 513 61 718 196 304 198 459 535 406 880 -26 165 -94 292
-223 414 -145 138 -243 193 -613 349 -268 113 -357 157 -389 191 -52 56 -14
123 82 143 78 16 168 -4 329 -75 243 -106 281 -118 375 -119 77 -1 92 2 152
32 169 83 262 288 213 471 -25 95 -61 155 -140 229 -141 135 -338 224 -585
266 -110 19 -303 27 -405 16z"/>
<path d="M5978 11251 c-141 -46 -230 -137 -290 -297 l-23 -59 -3 -1062 c-2
-926 -1 -1070 13 -1128 35 -153 116 -260 243 -322 75 -37 78 -38 191 -38 98 0
125 4 174 23 114 46 207 145 256 271 l26 66 5 755 5 755 24 60 c13 33 24 68
24 77 1 9 4 15 8 12 4 -2 17 9 28 25 92 128 336 170 494 85 15 -8 32 -12 37
-9 6 4 9 1 8 -7 -2 -7 5 -12 14 -12 10 1 15 -2 12 -7 -3 -5 8 -26 25 -46 44
-55 70 -122 81 -205 5 -40 10 -378 10 -750 0 -461 4 -694 11 -730 31 -145 127
-271 250 -328 58 -26 88 -34 158 -38 243 -13 424 129 476 374 12 57 15 195 14
794 0 399 -4 768 -8 820 -12 129 -31 231 -42 224 -5 -3 -6 1 -3 9 11 29 -102
280 -132 291 -11 4 -12 2 -1 -15 8 -13 9 -22 2 -27 -19 -14 -14 -29 10 -27 14
2 26 -3 29 -12 5 -12 1 -14 -16 -9 -13 3 -38 6 -55 6 -25 0 -33 4 -33 18 0 11
-3 13 -8 5 -4 -6 -40 -15 -80 -18 l-72 -8 0 -36 c0 -37 -1 -37 -37 -36 -27 0
-39 6 -41 18 -3 14 -16 17 -83 17 -61 0 -79 -3 -79 -14 0 -10 -22 -16 -80 -21
-44 -4 -80 -11 -80 -16 0 -5 -54 -9 -120 -9 -73 0 -120 -4 -120 -10 0 -5 -18
-10 -40 -10 -33 0 -40 -3 -40 -20 0 -18 -7 -20 -80 -20 -47 0 -80 -4 -80 -10
0 -5 18 -10 40 -10 33 0 40 -3 40 -19 0 -11 6 -21 13 -24 6 -3 -7 -3 -30 -2
-24 2 -47 6 -52 9 -5 4 -11 2 -13 -4 -2 -6 -22 -11 -45 -13 -24 -1 -43 -5 -43
-9 0 -5 -26 -6 -57 -3 -40 3 -68 0 -88 -10 -25 -13 -26 -14 -5 -9 41 10 90 13
85 4 -3 -5 -15 -6 -27 -2 -14 3 -19 2 -14 -6 7 -12 -6 -15 -54 -13 -18 1 -28
-6 -37 -25 -10 -22 -10 -25 3 -20 8 3 12 2 9 -3 -3 -6 -14 -9 -24 -8 -19 1
-24 25 -8 45 6 8 6 12 -2 12 -7 0 -10 4 -6 9 9 16 -29 18 -48 3 -11 -10 -35
-15 -67 -13 -44 1 -50 -1 -50 -19 0 -17 -7 -20 -40 -20 -33 0 -40 -3 -40 -20
0 -19 -7 -20 -120 -20 -97 0 -120 -3 -120 -14 0 -17 -122 -29 -245 -24 l-80 3
-1 35 c-3 105 -4 123 -8 119 -4 -5 -14 -76 -18 -134 -1 -22 -5 39 -8 135 -5
179 4 288 33 363 42 114 148 218 262 257 60 21 228 33 243 18 5 -5 23 -10 40
-11 21 -1 30 -6 28 -14 -3 -7 0 -15 6 -19 7 -4 8 -3 4 4 -8 13 5 16 20 5 6 -5
-11 13 -38 39 -66 65 -136 90 -263 94 -79 3 -112 0 -157 -15z m2142 -516 c0
-3 -9 -15 -20 -27 -22 -24 -26 -18 -10 13 10 17 30 27 30 14z m14 -30 c-7 -16
-24 -21 -24 -6 0 8 7 13 27 20 1 1 0 -6 -3 -14z m-84 -5 c0 -5 -4 -10 -10 -10
-5 0 -10 5 -10 10 0 6 5 10 10 10 6 0 10 -4 10 -10z m-290 -100 c0 -5 -18 -10
-40 -10 -22 0 -40 5 -40 10 0 6 18 10 40 10 22 0 40 -4 40 -10z m-650 -80 c-8
-5 -19 -10 -25 -10 -5 0 -3 5 5 10 8 5 20 10 25 10 6 0 3 -5 -5 -10z m90 0 c0
-5 -2 -10 -4 -10 -3 0 -8 5 -11 10 -3 6 -1 10 4 10 6 0 11 -4 11 -10z m200 0
c0 -5 -9 -10 -20 -10 -11 0 -20 5 -20 10 0 6 9 10 20 10 11 0 20 -4 20 -10z
m-226 -9 c8 -13 -18 -21 -45 -14 -22 6 -22 7 -3 14 27 11 42 11 48 0z m26 -21
c0 -5 -5 -10 -11 -10 -5 0 -7 5 -4 10 3 6 8 10 11 10 2 0 4 -4 4 -10z m994
-39 c-9 -37 -11 -37 -16 2 -3 25 0 33 9 30 8 -3 11 -14 7 -32z m-934 -16 c0
-8 -4 -15 -10 -15 -5 0 -7 7 -4 15 4 8 8 15 10 15 2 0 4 -7 4 -15z m45 5 c3
-5 1 -10 -4 -10 -6 0 -11 5 -11 10 0 6 2 10 4 10 3 0 8 -4 11 -10z m-34 -33
c-10 -9 -11 -8 -5 6 3 10 9 15 12 12 3 -3 0 -11 -7 -18z m956 -29 c-3 -8 -6
-5 -6 6 -1 11 2 17 5 13 3 -3 4 -12 1 -19z m-1647 -29 c0 -6 -4 -7 -10 -4 -5
3 -10 11 -10 16 0 6 5 7 10 4 6 -3 10 -11 10 -16z m29 -19 c0 -10 -3 -8 -9 5
-12 27 -12 43 0 25 5 -8 9 -22 9 -30z m-28 -9 c7 12 9 11 9 -1 0 -8 -5 -22
-10 -30 -6 -9 -10 -10 -10 -3 0 6 -2 17 -3 25 -2 7 -2 9 1 4 2 -4 8 -2 13 5z
m-774 -23 c-3 -8 -6 -5 -6 6 -1 11 2 17 5 13 3 -3 4 -12 1 -19z"/>
<path d="M7700 11120 c0 -5 0 -13 0 -17 0 -5 13 -8 29 -8 16 0 27 4 24 8 -3 5
-16 6 -29 3 -18 -5 -22 -3 -18 9 4 8 3 15 0 15 -3 0 -6 -4 -6 -10z"/>
<path d="M7860 10936 c0 -17 32 -15 38 2 2 7 -6 12 -17 12 -12 0 -21 -6 -21
-14z"/>
<path d="M7943 10890 c1 -20 27 -29 27 -9 0 5 6 7 13 4 6 -4 3 1 -7 9 -26 21
-35 20 -33 -4z"/>
<path d="M15207 8055 c-168 -43 -327 -170 -405 -326 -62 -124 -77 -190 -77
-349 0 -153 14 -221 69 -335 91 -188 254 -312 461 -350 142 -27 262 -10 401
56 154 73 263 214 313 404 19 69 24 196 11 244 -15 55 -63 105 -115 120 -51
14 -358 14 -407 1 -113 -32 -152 -159 -77 -245 34 -39 92 -55 193 -55 73 0 80
-7 60 -65 -37 -110 -151 -173 -293 -163 -114 8 -188 62 -242 174 -44 91 -57
200 -37 303 28 142 87 230 182 273 41 18 68 23 141 23 97 -1 141 -15 235 -75
104 -67 194 -63 245 9 85 124 -28 272 -263 343 -90 27 -311 34 -395 13z"/>
<path d="M12591 8038 c-84 -43 -82 -34 -79 -513 l3 -420 28 -65 c78 -184 238
-310 439 -346 101 -18 185 -12 286 22 170 56 292 172 360 342 l27 67 0 417 c0
405 -1 417 -21 444 -75 101 -215 96 -275 -9 l-24 -42 -5 -385 c-5 -373 -6
-386 -27 -426 -99 -184 -362 -176 -451 15 -14 31 -17 89 -22 427 l-5 391 -28
36 c-34 45 -55 57 -115 63 -37 4 -57 0 -91 -18z"/>
<path d="M11561 8033 c-19 -10 -44 -31 -55 -46 -20 -28 -21 -42 -26 -555 -3
-290 -3 -551 1 -579 6 -60 30 -99 80 -128 31 -18 55 -20 264 -23 256 -4 338 7
432 54 68 35 137 105 170 174 23 47 28 71 31 168 4 106 3 115 -23 168 -30 62
-91 126 -147 155 -45 23 -47 37 -12 70 14 13 38 47 52 74 23 43 26 63 27 140
0 79 -3 97 -29 149 -36 73 -90 127 -164 163 l-57 28 -255 3 c-228 2 -259 1
-289 -15z m419 -288 c38 -20 50 -43 50 -97 0 -36 -6 -50 -31 -74 -28 -27 -35
-29 -112 -29 l-82 0 -3 94 c-1 52 -1 100 2 108 8 19 138 17 176 -2z m56 -506
c83 -21 116 -95 78 -174 -25 -54 -65 -66 -196 -63 l-113 3 -3 109 c-1 61 0
116 2 123 7 17 167 18 232 2z"/>
<path d="M13810 8027 c-19 -12 -43 -38 -54 -57 -21 -34 -21 -48 -21 -600 0
-630 -3 -605 69 -650 80 -49 175 -31 224 43 26 39 27 46 32 216 3 107 9 176
15 176 5 -1 87 -95 182 -210 191 -233 224 -260 302 -252 80 9 141 77 140 156
0 25 -3 54 -7 63 -4 10 -68 83 -142 164 -74 80 -139 153 -143 160 -6 11 6 21
50 40 128 57 198 134 229 254 14 55 15 79 6 153 -19 153 -81 251 -197 311 -96
49 -149 56 -411 56 -234 0 -242 -1 -274 -23z m461 -287 c55 -15 82 -51 86
-112 3 -41 -1 -61 -17 -86 -30 -49 -74 -63 -183 -60 l-92 3 -3 124 c-2 93 1
126 10 133 18 11 156 10 199 -2z"/>
<path d="M16110 8028 c-19 -13 -43 -39 -54 -58 -20 -34 -21 -51 -24 -570 -2
-294 0 -550 3 -568 3 -18 22 -51 41 -72 51 -56 90 -62 391 -58 236 3 253 4
279 24 51 38 69 71 69 128 0 65 -18 100 -64 129 -33 20 -53 22 -211 27 l-175
5 0 105 0 105 160 5 c133 4 166 8 188 23 43 28 67 75 67 132 -1 58 -13 84 -55
117 -27 21 -40 23 -175 26 -209 4 -191 -7 -188 115 l3 102 170 5 c188 6 207
11 246 73 16 25 19 45 16 90 -3 51 -8 62 -40 95 l-37 37 -288 3 c-286 3 -288
3 -322 -20z"/>
<path d="M16940 8032 c-22 -12 -44 -35 -57 -62 l-23 -44 0 -553 c0 -611 -1
-598 63 -647 51 -39 119 -45 176 -14 69 37 80 68 86 238 3 80 5 160 5 178 0
17 4 32 9 32 5 0 86 -94 180 -209 94 -116 184 -219 200 -231 102 -72 250 9
251 136 0 52 -20 79 -179 248 -67 71 -120 134 -118 140 2 5 36 27 76 47 123
62 191 149 211 270 19 116 -25 277 -98 360 -17 20 -58 50 -90 67 -103 55 -150
62 -417 62 -213 0 -244 -2 -275 -18z m476 -301 c97 -44 97 -196 -1 -237 -42
-17 -210 -19 -221 -3 -8 13 -6 237 2 250 10 18 177 10 220 -10z"/>
<path d="M17987 6946 c-51 -19 -76 -42 -99 -95 -30 -66 -18 -123 36 -177 72
-72 160 -72 232 0 49 48 63 97 45 156 -29 96 -125 148 -214 116z m103 -32 c97
-39 118 -162 39 -228 -90 -76 -225 -13 -223 103 1 59 26 98 79 122 49 23 55
23 105 3z"/>
<path d="M17970 6790 c0 -73 3 -90 15 -90 10 0 15 10 15 30 0 23 5 30 19 30
11 0 29 -13 41 -30 12 -16 28 -30 36 -30 12 0 11 6 -6 31 -20 28 -21 31 -6 48
9 10 16 32 16 50 0 37 -26 51 -91 51 l-39 0 0 -90z m104 44 c9 -24 -12 -44
-45 -44 -26 0 -29 4 -29 30 0 27 3 30 34 30 22 0 36 -6 40 -16z"/>
<path d="M2460 5960 c-166 -11 -254 -62 -281 -162 -24 -93 7 -187 169 -508
416 -824 934 -1535 1602 -2201 268 -267 364 -340 497 -374 99 -26 183 -23
1313 45 l315 19 50 -31 c171 -106 343 -208 424 -251 l93 -50 207 42 c113 22
238 48 276 55 39 8 178 35 310 61 255 49 484 95 603 120 217 46 952 158 1397
214 353 44 510 59 805 76 146 8 384 22 530 30 146 8 575 33 954 55 516 30 760
40 970 40 262 -1 661 -12 871 -25 50 -3 212 -12 360 -20 538 -29 790 -46 811
-55 27 -11 79 23 251 161 l122 98 703 41 c387 22 740 45 785 50 247 31 333
105 711 609 190 253 387 556 562 861 102 178 345 672 371 753 30 97 29 173 -4
230 -31 53 -70 79 -153 104 -56 17 -396 18 -7789 19 -4252 1 -7777 -2 -7835
-6z m14863 -721 c38 -19 57 -51 57 -97 0 -61 -41 -102 -100 -102 -35 0 -48 6
-77 35 -32 32 -35 39 -30 78 10 75 86 119 150 86z m-11541 -78 c107 -37 188
-96 171 -124 -4 -7 -39 -53 -77 -100 l-69 -87 -31 24 c-37 28 -115 56 -155 56
-45 0 -93 -20 -129 -54 -43 -39 -50 -54 -62 -116 -18 -97 23 -195 100 -235 41
-21 123 -29 164 -15 34 11 36 14 36 56 l0 44 -75 0 -75 0 0 95 0 95 210 0 209
0 0 -205 0 -205 -32 -24 c-94 -71 -211 -107 -347 -107 -162 -1 -307 64 -388
173 l-37 49 -3 -106 -3 -106 -126 3 -127 3 -58 75 c-152 196 -205 265 -228
298 l-25 36 -5 -205 -5 -204 -271 -3 -271 -2 -23 60 -22 60 -152 0 -151 0 -21
-57 -20 -58 -152 -3 c-84 -1 -152 1 -152 5 0 5 80 208 178 453 l178 445 143 0
143 0 152 -379 151 -379 3 377 2 376 138 0 138 0 50 -67 c89 -122 235 -308
245 -311 5 -2 9 75 9 187 l0 191 140 0 140 0 1 -107 c0 -104 1 -107 16 -83 31
47 118 125 171 153 109 59 282 71 404 28z m3434 18 c69 -13 165 -56 214 -97
l34 -29 -74 -94 c-40 -52 -77 -98 -81 -102 -4 -5 -26 5 -49 22 -110 80 -262
53 -316 -56 -28 -56 -26 -165 4 -218 49 -87 144 -120 255 -89 13 4 17 16 17
50 l0 44 -75 0 -75 0 0 95 c0 83 2 95 18 96 9 0 103 1 207 1 l190 0 0 -212 0
-212 -65 -40 c-95 -57 -185 -82 -300 -82 -250 -1 -440 145 -481 369 l-11 60
-47 -45 c-25 -25 -54 -49 -64 -55 -15 -9 -7 -26 78 -155 52 -80 95 -148 95
-152 0 -5 -73 -8 -162 -8 l-163 1 -79 129 c-71 118 -81 130 -107 130 l-29 0 0
-130 0 -130 -145 0 -145 0 0 450 0 450 258 0 c270 0 315 -6 399 -48 54 -28
113 -97 133 -156 l16 -48 38 61 c99 161 299 239 512 200z m3538 -9 c120 -30
229 -100 209 -133 -4 -7 -39 -53 -77 -100 -61 -77 -71 -85 -85 -73 -72 63
-203 81 -273 38 -45 -28 -73 -72 -88 -136 -37 -166 101 -300 263 -255 36 10
37 12 37 54 l0 45 -75 0 -75 0 0 95 0 95 205 0 205 0 0 -208 0 -208 -28 -21
c-75 -56 -168 -90 -273 -102 -200 -22 -387 56 -478 200 l-38 61 -5 -32 c-3
-18 -3 -64 -1 -104 6 -122 13 -116 -132 -116 l-124 0 -158 207 -158 207 -3
-207 -2 -207 -140 0 -140 0 0 450 0 450 133 0 133 0 89 -116 c50 -64 118 -152
153 -196 l62 -81 0 197 0 197 143 -3 142 -3 0 -122 c-1 -68 2 -123 5 -123 3 0
19 23 35 51 103 174 322 255 539 199z m1975 -425 c95 -240 175 -444 178 -455
5 -19 0 -20 -149 -20 l-155 0 -22 60 -22 61 -151 -3 -152 -3 -20 -57 -21 -58
-152 0 c-84 0 -153 2 -153 4 0 3 4 16 10 30 11 31 10 31 -38 7 -68 -34 -136
-41 -407 -41 l-265 0 0 450 0 450 283 0 c317 0 359 -6 424 -63 110 -97 92
-281 -35 -346 l-35 -18 46 -22 c55 -26 106 -81 114 -122 3 -16 8 -29 12 -29 3
0 53 118 110 263 57 144 112 281 122 305 l18 42 143 0 143 0 174 -435z m1388
60 c81 -206 151 -375 156 -375 4 0 7 167 7 370 l0 370 134 0 134 0 142 -185
c79 -102 147 -188 151 -191 5 -3 9 80 9 185 l0 191 145 0 145 0 -2 -447 -3
-448 -130 0 -130 0 -155 202 -155 202 -3 -204 -2 -205 -273 0 -272 0 -23 60
-24 60 -148 0 -148 0 -22 -60 -22 -60 -155 0 c-120 0 -154 3 -150 13 3 6 81
203 174 437 93 234 173 433 176 443 6 15 22 17 151 17 l144 0 149 -375z
m-9271 350 c27 -8 69 -31 92 -51 l42 -36 0 51 0 51 145 0 145 0 1 -242 c0
-285 5 -328 44 -368 56 -58 165 -47 202 22 16 29 18 65 21 311 l4 277 144 0
145 0 -3 -307 c-3 -254 -7 -317 -21 -358 -55 -167 -189 -249 -402 -249 -163 1
-291 53 -351 144 l-26 40 -27 -39 c-33 -50 -69 -78 -134 -104 -48 -20 -75 -22
-344 -25 l-293 -4 0 451 0 451 283 0 c221 0 294 -3 333 -15z m3424 -110 l0
-125 -226 0 -225 0 3 -42 3 -43 208 -3 208 -2 -3 -108 -3 -107 -207 -3 -208
-2 0 -45 0 -45 230 0 230 0 0 -125 0 -125 -370 0 -370 0 0 450 0 450 365 0
365 0 0 -125z m634 105 c80 -25 141 -70 180 -134 26 -41 30 -60 34 -136 6
-112 -14 -175 -72 -234 -22 -23 -52 -49 -65 -57 l-23 -15 96 -146 c53 -81 96
-149 96 -152 0 -3 -73 -6 -162 -6 l-163 1 -80 127 c-74 117 -83 127 -110 127
l-30 0 -2 -125 -2 -125 -141 0 -141 0 0 118 c0 64 0 266 1 447 l0 330 259 0
c232 0 266 -2 325 -20z m4131 -120 c37 -77 71 -140 74 -140 4 0 38 63 76 140
l69 140 158 0 c87 0 158 -2 158 -5 0 -2 -72 -132 -160 -289 l-160 -284 0 -161
0 -161 -145 0 -145 0 0 161 0 162 -59 106 c-32 58 -99 178 -148 266 -49 88
-95 170 -102 183 l-12 22 164 0 163 0 69 -140z"/>
<path d="M17250 5233 c-50 -18 -76 -70 -60 -119 23 -69 99 -86 151 -35 47 48
38 116 -21 146 -30 16 -45 17 -70 8z m61 -49 c10 -12 10 -20 1 -35 -9 -14 -10
-25 -2 -39 14 -26 -1 -26 -18 0 -7 11 -19 20 -27 20 -8 0 -15 -9 -15 -20 0
-11 -4 -20 -10 -20 -11 0 -14 93 -3 103 12 13 61 7 74 -9z"/>
<path d="M17250 5167 c0 -19 5 -24 23 -23 15 1 22 7 22 21 0 13 -8 21 -22 23
-19 3 -23 -1 -23 -21z"/>
<path d="M3839 4723 c-19 -53 -35 -101 -37 -105 -2 -4 30 -8 72 -8 42 0 76 3
76 7 0 8 -71 203 -74 203 -2 0 -18 -44 -37 -97z"/>
<path d="M8150 4837 l0 -86 48 -3 c69 -4 141 6 158 23 8 9 17 31 20 50 5 28 1
41 -19 64 -23 27 -30 29 -116 33 l-91 4 0 -85z"/>
<path d="M13490 4880 l0 -60 85 0 c79 0 88 2 111 25 15 15 23 32 20 41 -3 9
-6 19 -6 23 0 18 -56 31 -130 31 l-80 0 0 -60z"/>
<path d="M14372 4717 c-18 -51 -32 -95 -32 -99 0 -5 32 -8 70 -8 39 0 70 2 70
4 0 10 -63 181 -69 188 -3 4 -21 -34 -39 -85z"/>
<path d="M13490 4565 l0 -65 84 0 c47 0 96 4 110 10 51 19 57 87 10 109 -14 6
-65 11 -114 11 l-90 0 0 -65z"/>
<path d="M15812 4790 c-32 -83 -62 -173 -58 -177 2 -2 35 -3 73 -1 l69 3 -37
100 c-34 90 -38 98 -47 75z"/>
<path d="M6510 4880 l0 -60 83 0 c96 0 127 14 127 60 0 46 -31 60 -127 60
l-83 0 0 -60z"/>
<path d="M6962 4814 c-5 -8 -28 -28 -51 -43 l-43 -29 56 -30 56 -30 0 74 c0
76 -3 85 -18 58z"/>
<path d="M6510 4565 l0 -65 85 0 c110 0 145 16 145 65 0 52 -26 65 -137 65
l-93 0 0 -65z"/>
<path d="M10608 4914 c-5 -4 -8 -43 -8 -86 l0 -78 85 0 c46 0 95 5 109 11 49
22 55 103 11 139 -18 15 -185 27 -197 14z"/>
</g>
</svg>
